<svg 
 xmlns="http://www.w3.org/2000/svg"
 xmlns:xlink="http://www.w3.org/1999/xlink"
 width="22px" height="9px">
<path fill-rule="evenodd"  fill="rgb(163, 187, 200)"
 d="M21.703,3.526 L21.711,3.528 L4.755,3.528 L4.856,0.670 C4.910,0.615 4.940,0.541 4.940,0.465 C4.940,0.388 4.910,0.315 4.856,0.260 L4.683,0.87 C4.629,0.32 4.557,0.3 4.480,0.3 C4.402,0.3 4.330,0.32 4.276,0.86 L0.84,4.298 C0.29,4.352 0.0,4.426 0.0,4.502 C0.0,4.580 0.29,4.653 0.84,4.706 L4.276,8.920 C4.330,8.973 4.402,9.2 4.480,9.2 C4.557,9.2 4.629,8.973 4.683,8.920 L4.856,8.745 C4.910,8.692 4.940,8.619 4.940,8.541 C4.940,8.464 4.910,8.395 4.856,8.342 L4.743,5.477 L21.707,5.477 C21.866,5.477 22.0,5.340 22.0,5.181 L22.0,3.811 C22.0,3.652 21.862,3.526 21.703,3.526 Z"/>
</svg>