<svg 
 xmlns="http://www.w3.org/2000/svg"
 xmlns:xlink="http://www.w3.org/1999/xlink"
 width="18px" height="18px">
<path fill-rule="evenodd"  fill="rgb(9, 64, 116)"
 d="M17.249,17.919 C17.97,17.919 16.945,17.862 16.830,17.746 L11.531,12.448 C10.397,13.393 8.940,13.961 7.353,13.961 C3.752,13.961 0.821,11.32 0.821,7.430 C0.821,3.829 3.752,0.899 7.353,0.899 C10.955,0.899 13.884,3.829 13.884,7.430 C13.884,9.17 13.316,10.475 12.370,11.608 L17.668,16.907 C17.784,17.23 17.842,17.174 17.842,17.326 C17.842,17.478 17.784,17.629 17.668,17.746 C17.552,17.862 17.401,17.919 17.249,17.919 ZM7.353,2.86 C4.406,2.86 2.9,4.484 2.9,7.430 C2.9,10.377 4.406,12.774 7.353,12.774 C10.299,12.774 12.697,10.377 12.697,7.430 C12.697,4.484 10.299,2.86 7.353,2.86 Z"/>
</svg>