<?xml version="1.0" encoding="UTF-8"?>
<svg xmlns="http://www.w3.org/2000/svg" xmlns:xlink="http://www.w3.org/1999/xlink" width="13px" height="13px" viewBox="0 0 13 13" version="1.1">
<g id="surface1">
<path style=" stroke:none;fill-rule:nonzero;fill:rgb(0%,0%,0%);fill-opacity:1;" d="M 2.707031 0 L 2.707031 2.167969 L 3.792969 2.167969 L 3.792969 0 Z M 9.207031 0 L 9.207031 2.167969 L 10.292969 2.167969 L 10.292969 0 Z M 0.542969 1.625 C 0.242188 1.625 0 1.867188 0 2.167969 L 0 3.792969 C 0 4.089844 0.242188 4.332031 0.542969 4.332031 L 0.542969 13 L 12.457031 13 L 12.457031 4.332031 C 12.757812 4.332031 13 4.089844 13 3.792969 L 13 2.167969 C 13 1.867188 12.757812 1.625 12.457031 1.625 L 10.832031 1.625 L 10.832031 2.707031 L 8.667969 2.707031 L 8.667969 1.625 L 4.332031 1.625 L 4.332031 2.707031 L 2.167969 2.707031 L 2.167969 1.625 Z M 1.625 4.332031 L 11.375 4.332031 L 11.375 11.917969 L 1.625 11.917969 Z M 2.707031 5.417969 L 2.707031 6.5 L 3.792969 6.5 L 3.792969 5.417969 Z M 4.875 5.417969 L 4.875 6.5 L 5.957031 6.5 L 5.957031 5.417969 Z M 7.042969 5.417969 L 7.042969 6.5 L 8.125 6.5 L 8.125 5.417969 Z M 9.207031 5.417969 L 9.207031 6.5 L 10.292969 6.5 L 10.292969 5.417969 Z M 2.707031 7.582031 L 2.707031 8.667969 L 3.792969 8.667969 L 3.792969 7.582031 Z M 4.875 7.582031 L 4.875 8.667969 L 5.957031 8.667969 L 5.957031 7.582031 Z M 7.042969 7.582031 L 7.042969 8.667969 L 8.125 8.667969 L 8.125 7.582031 Z M 9.207031 7.582031 L 9.207031 8.667969 L 10.292969 8.667969 L 10.292969 7.582031 Z M 2.707031 9.75 L 2.707031 10.832031 L 3.792969 10.832031 L 3.792969 9.75 Z M 4.875 9.75 L 4.875 10.832031 L 5.957031 10.832031 L 5.957031 9.75 Z M 7.042969 9.75 L 7.042969 10.832031 L 8.125 10.832031 L 8.125 9.75 Z M 9.207031 9.75 L 9.207031 10.832031 L 10.292969 10.832031 L 10.292969 9.75 Z M 9.207031 9.75 "/>
</g>
</svg>
