<?xml version="1.0" encoding="UTF-8"?>
<svg xmlns="http://www.w3.org/2000/svg" xmlns:xlink="http://www.w3.org/1999/xlink" width="12px" height="12px" viewBox="0 0 12 12" version="1.1">
<g id="surface1">
<path style=" stroke:none;fill-rule:nonzero;fill:rgb(0%,0%,0%);fill-opacity:1;" d="M 3.375 1.5 L 3.375 1.875 L 1.875 1.875 L 1.875 10.125 L 10.125 10.125 L 10.125 1.875 L 8.625 1.875 L 8.625 1.5 L 7.875 1.5 L 7.875 1.875 L 4.125 1.875 L 4.125 1.5 Z M 2.625 2.625 L 3.375 2.625 L 3.375 3 L 4.125 3 L 4.125 2.625 L 7.875 2.625 L 7.875 3 L 8.625 3 L 8.625 2.625 L 9.375 2.625 L 9.375 3.375 L 2.625 3.375 Z M 2.625 4.125 L 9.375 4.125 L 9.375 9.375 L 2.625 9.375 Z M 4.875 4.875 L 4.875 5.625 L 5.625 5.625 L 5.625 4.875 Z M 6.375 4.875 L 6.375 5.625 L 7.125 5.625 L 7.125 4.875 Z M 7.875 4.875 L 7.875 5.625 L 8.625 5.625 L 8.625 4.875 Z M 3.375 6.375 L 3.375 7.125 L 4.125 7.125 L 4.125 6.375 Z M 4.875 6.375 L 4.875 7.125 L 5.625 7.125 L 5.625 6.375 Z M 6.375 6.375 L 6.375 7.125 L 7.125 7.125 L 7.125 6.375 Z M 7.875 6.375 L 7.875 7.125 L 8.625 7.125 L 8.625 6.375 Z M 3.375 7.875 L 3.375 8.625 L 4.125 8.625 L 4.125 7.875 Z M 4.875 7.875 L 4.875 8.625 L 5.625 8.625 L 5.625 7.875 Z M 6.375 7.875 L 6.375 8.625 L 7.125 8.625 L 7.125 7.875 Z M 6.375 7.875 "/>
</g>
</svg>
