<?xml version="1.0" encoding="UTF-8"?>
<svg xmlns="http://www.w3.org/2000/svg" xmlns:xlink="http://www.w3.org/1999/xlink" width="12px" height="12px" viewBox="0 0 12 12" version="1.1">
<g id="surface1">
<path style=" stroke:none;fill-rule:nonzero;fill:rgb(0%,0%,0%);fill-opacity:1;" d="M 1.5 1.5 L 1.5 10.5 L 10.5 10.5 L 10.5 1.5 Z M 2.25 2.25 L 9.75 2.25 L 9.75 9.75 L 8.980469 9.75 C 8.851562 8.734375 8.207031 7.878906 7.320312 7.445312 C 7.882812 7.03125 8.25 6.371094 8.25 5.625 C 8.25 4.386719 7.238281 3.375 6 3.375 C 4.761719 3.375 3.75 4.386719 3.75 5.625 C 3.75 6.371094 4.117188 7.03125 4.679688 7.445312 C 3.792969 7.878906 3.148438 8.734375 3.027344 9.75 L 2.25 9.75 Z M 6 4.125 C 6.835938 4.125 7.5 4.789062 7.5 5.625 C 7.5 6.460938 6.835938 7.125 6 7.125 C 5.164062 7.125 4.5 6.460938 4.5 5.625 C 4.5 4.789062 5.164062 4.125 6 4.125 Z M 6 7.875 C 7.121094 7.875 8.035156 8.679688 8.210938 9.75 L 3.789062 9.75 C 3.964844 8.679688 4.878906 7.875 6 7.875 Z M 6 7.875 "/>
</g>
</svg>
