<?xml version="1.0" encoding="UTF-8"?>
<svg xmlns="http://www.w3.org/2000/svg" xmlns:xlink="http://www.w3.org/1999/xlink" width="13px" height="13px" viewBox="0 0 13 13" version="1.1">
<g id="surface1">
<path style=" stroke:none;fill-rule:nonzero;fill:rgb(0%,0%,0%);fill-opacity:1;" d="M 1.625 1.625 L 1.625 11.375 L 11.375 11.375 L 11.375 1.625 Z M 2.4375 2.4375 L 10.5625 2.4375 L 10.5625 10.5625 L 9.726562 10.5625 C 9.585938 9.464844 8.890625 8.535156 7.933594 8.0625 C 8.539062 7.617188 8.9375 6.898438 8.9375 6.09375 C 8.9375 4.753906 7.839844 3.65625 6.5 3.65625 C 5.160156 3.65625 4.0625 4.753906 4.0625 6.09375 C 4.0625 6.898438 4.460938 7.617188 5.066406 8.0625 C 4.109375 8.535156 3.414062 9.464844 3.277344 10.5625 L 2.4375 10.5625 Z M 6.5 4.46875 C 7.402344 4.46875 8.125 5.191406 8.125 6.09375 C 8.125 6.996094 7.402344 7.71875 6.5 7.71875 C 5.597656 7.71875 4.875 6.996094 4.875 6.09375 C 4.875 5.191406 5.597656 4.46875 6.5 4.46875 Z M 6.5 8.53125 C 7.710938 8.53125 8.707031 9.40625 8.898438 10.5625 L 4.101562 10.5625 C 4.292969 9.40625 5.289062 8.53125 6.5 8.53125 Z M 6.5 8.53125 "/>
</g>
</svg>
