<svg 
 xmlns="http://www.w3.org/2000/svg"
 xmlns:xlink="http://www.w3.org/1999/xlink"
 width="23px" height="15px">
<path fill-rule="evenodd"  fill="rgb(136, 136, 136)"
 d="M22.691,6.394 L22.690,6.464 L22.676,8.280 L22.676,8.356 L22.600,8.356 L20.170,8.356 L20.151,10.786 L20.151,10.855 L20.81,10.855 L18.258,10.855 L18.189,10.855 L18.190,10.786 L18.208,8.356 L15.778,8.356 L15.702,8.356 L15.702,8.280 L15.716,6.464 L15.717,6.394 L15.793,6.394 L18.223,6.394 L18.242,3.957 L18.242,3.888 L18.311,3.888 L20.135,3.888 L20.203,3.888 L20.203,3.957 L20.184,6.394 L22.615,6.394 L22.691,6.394 ZM9.107,14.675 C8.468,14.839 7.820,14.920 7.168,14.920 C7.29,14.920 6.890,14.917 6.751,14.909 C5.342,14.826 4.61,14.384 2.928,13.549 C1.465,12.472 0.544,11.35 0.157,9.260 C0.17,8.618 0.32,7.976 0.20,7.327 C0.121,5.793 0.657,4.419 1.639,3.225 C2.657,1.975 3.954,1.160 5.505,0.767 C5.898,0.663 6.293,0.600 6.694,0.580 C6.921,0.573 7.150,0.559 7.378,0.559 C8.593,0.573 9.731,0.877 10.775,1.492 C11.476,1.892 11.874,2.299 12.45,2.424 C11.329,3.128 10.640,3.819 9.937,4.509 C9.416,4.60 8.839,3.646 7.839,3.494 C7.632,3.464 7.427,3.449 7.226,3.449 C5.219,3.449 3.537,4.901 3.90,6.802 C2.983,7.230 2.952,7.665 2.990,8.100 C3.143,9.868 4.326,11.318 5.925,11.836 C6.332,11.964 6.754,12.25 7.178,12.25 C7.278,12.25 7.377,12.23 7.477,12.16 C8.230,11.968 8.935,11.767 9.574,11.346 C10.650,10.614 10.997,9.468 11.0,9.184 L7.153,9.184 C7.154,9.90 7.168,7.292 7.174,6.415 L7.182,6.298 L13.935,6.298 C14.299,8.405 13.972,10.620 12.660,12.354 C11.754,13.549 10.546,14.301 9.107,14.675 Z"/>
</svg>