<svg 
 xmlns="http://www.w3.org/2000/svg"
 xmlns:xlink="http://www.w3.org/1999/xlink"
 width="18px" height="18px">
<path fill-rule="evenodd"  fill="rgb(136, 136, 136)"
 d="M16.908,14.122 C16.374,16.83 15.95,17.243 13.110,17.561 C12.369,17.681 10.366,17.753 8.366,17.753 C6.319,17.753 4.275,17.677 3.588,17.499 C1.638,16.995 0.474,15.724 0.164,13.749 C0.66,12.299 0.90,5.559 0.327,4.95 C0.873,2.189 2.146,1.70 4.75,0.753 C4.949,0.610 6.658,0.559 8.385,0.559 C9.990,0.559 11.608,0.603 12.583,0.656 C13.764,0.719 14.845,1.98 15.723,1.941 C16.559,2.742 16.986,3.743 17.95,4.875 C17.223,6.229 17.306,12.623 16.908,14.122 ZM15.547,5.20 C15.393,3.508 14.468,2.514 12.972,2.279 C12.231,2.167 10.447,2.116 8.672,2.116 C6.960,2.116 5.255,2.163 4.505,2.244 C3.6,2.417 1.997,3.342 1.758,4.834 C1.511,6.415 1.514,12.327 1.698,13.515 C1.889,14.750 2.588,15.600 3.821,15.945 C4.488,16.132 6.487,16.199 8.446,16.199 C10.250,16.199 12.21,16.143 12.687,16.69 C14.201,15.904 15.201,14.971 15.441,13.466 C15.688,11.954 15.688,6.436 15.547,5.20 ZM13.208,5.614 C12.636,5.608 12.183,5.145 12.187,4.579 C12.192,4.10 12.651,3.550 13.218,3.550 L13.231,3.550 C13.798,3.550 14.256,4.13 14.252,4.585 C14.247,5.151 13.781,5.614 13.208,5.614 ZM8.562,13.569 C6.125,13.569 4.171,11.595 4.190,9.157 C4.209,6.719 6.199,4.744 8.636,4.751 C11.67,4.751 13.27,6.726 13.9,9.164 C12.990,11.595 11.0,13.569 8.562,13.569 ZM8.645,6.305 L8.620,6.305 C7.57,6.305 5.770,7.564 5.744,9.129 C5.719,10.704 6.972,11.995 8.547,12.9 L8.572,12.9 C10.135,12.9 11.422,10.750 11.448,9.185 C11.473,7.603 10.220,6.319 8.645,6.305 Z"/>
</svg>